<svg width="1200" height="520" viewBox="0 0 1200 520" xmlns="http://www.w3.org/2000/svg" role="img" aria-label="Developer workspace illustration">
  <defs>
    <linearGradient id="bg2" x1="0" y1="0" x2="1" y2="1">
      <stop offset="0%" stop-color="#e0f2fe" />
      <stop offset="100%" stop-color="#f8fafc" />
    </linearGradient>
    <linearGradient id="screen" x1="0" y1="0" x2="0" y2="1">
      <stop offset="0%" stop-color="#0f172a" />
      <stop offset="100%" stop-color="#1e293b" />
    </linearGradient>
  </defs>

  <rect width="1200" height="520" fill="url(#bg2)" rx="24" />

  <rect x="130" y="110" width="620" height="320" rx="18" fill="#0f172a" />
  <rect x="145" y="125" width="590" height="290" rx="12" fill="url(#screen)" />

  <rect x="790" y="90" width="260" height="160" rx="16" fill="#ffffff" stroke="#bfdbfe" stroke-width="2" />
  <rect x="790" y="270" width="260" height="160" rx="16" fill="#ffffff" stroke="#bfdbfe" stroke-width="2" />

  <rect x="190" y="170" width="180" height="14" rx="7" fill="#22d3ee" />
  <rect x="190" y="200" width="360" height="10" rx="5" fill="#38bdf8" fill-opacity="0.7" />
  <rect x="190" y="225" width="300" height="10" rx="5" fill="#38bdf8" fill-opacity="0.55" />
  <rect x="190" y="250" width="420" height="10" rx="5" fill="#38bdf8" fill-opacity="0.45" />
  <rect x="190" y="275" width="260" height="10" rx="5" fill="#38bdf8" fill-opacity="0.6" />

  <text x="820" y="150" fill="#0f172a" font-family="Segoe UI, Arial, sans-serif" font-size="22" font-weight="700">Now Building</text>
  <text x="820" y="183" fill="#334155" font-family="Segoe UI, Arial, sans-serif" font-size="18">React Native app</text>
  <text x="820" y="212" fill="#334155" font-family="Segoe UI, Arial, sans-serif" font-size="18">with Django APIs</text>

  <text x="820" y="330" fill="#0f172a" font-family="Segoe UI, Arial, sans-serif" font-size="22" font-weight="700">Focus Areas</text>
  <text x="820" y="363" fill="#334155" font-family="Segoe UI, Arial, sans-serif" font-size="18">Full-stack apps</text>
  <text x="820" y="392" fill="#334155" font-family="Segoe UI, Arial, sans-serif" font-size="18">Desktop + web integration</text>

  <rect x="130" y="440" width="920" height="28" rx="14" fill="#1d4ed8" fill-opacity="0.12" />
</svg>
